<svg xmlns="http://www.w3.org/2000/svg" width="22" height="22" viewBox="0 0 22 22">
  <g id="dashboard_icon" transform="translate(8477 1482)">
    <g id="noun_dashboard_1135783" transform="translate(-8473 -1478)">
      <g id="Group_2729" data-name="Group 2729">
        <path id="Path_26945" data-name="Path 26945" d="M6.962,959.162a.162.162,0,0,0-.162.162V973a.162.162,0,0,0,.162.162H20.638A.162.162,0,0,0,20.8,973V959.324a.162.162,0,0,0-.162-.162Zm.162.324h6.517v4.528H7.124Zm6.841,0h6.511v9.239H13.965Zm-6.841,4.852h6.517v8.5H7.124Zm6.841,4.711h6.511v3.788H13.965Z" transform="translate(-6.8 -959.162)" fill="#394255" stroke="#394255" stroke-width="0.4" fill-rule="evenodd"/>
      </g>
    </g>
    <g id="Group_2737" data-name="Group 2737" transform="translate(-8477 -1482)">
      <rect id="Rectangle_2999" data-name="Rectangle 2999" width="22" height="22" fill="#fff" opacity="0"/>
    </g>
  </g>
</svg>
