<svg xmlns="http://www.w3.org/2000/svg" width="26" height="26" viewBox="0 0 26 26"><defs><style>.a{fill:none;opacity:0.51;}.b{fill:#fff;stroke:#fff;stroke-width:0.3px;}.c{fill:#222d32;stroke:#222d32;stroke-width:0.4px;}</style></defs><g transform="translate(26 0) rotate(90)"><rect class="a" width="26" height="26" transform="translate(0 26) rotate(-90)"/><g transform="translate(-25.11 22) rotate(-90)"><g transform="translate(0 30.11)"><path class="b" d="M208.119,191.141h-8.788a.277.277,0,1,0,0,.554h8.788a.277.277,0,1,0,0-.554Z" transform="translate(-191.705 -185.195)"/><path class="b" d="M208.119,248.474h-8.788a.277.277,0,0,0,0,.554h8.788a.277.277,0,0,0,0-.554Z" transform="translate(-191.705 -240.411)"/><path class="b" d="M208.119,305.807h-8.788a.277.277,0,0,0,0,.554h8.788a.277.277,0,1,0,0-.554Z" transform="translate(-191.705 -295.628)"/><path class="c" d="M151.267,125.549H140.721a1.612,1.612,0,0,0-1.611,1.611v6.632a1.612,1.612,0,0,0,1.611,1.611h7.392a.255.255,0,0,1,.2.1l2.387,3.022a.476.476,0,0,0,.375.184.49.49,0,0,0,.161-.028.476.476,0,0,0,.324-.455v-2.849a1.618,1.618,0,0,0,1.316-1.583V127.16A1.612,1.612,0,0,0,151.267,125.549Zm1.057,8.243a1.06,1.06,0,0,1-1.043,1.056.277.277,0,0,0-.273.277v2.891l-2.259-2.86a.806.806,0,0,0-.636-.308h-7.392a1.058,1.058,0,0,1-1.057-1.057V127.16a1.058,1.058,0,0,1,1.057-1.057h10.547a1.058,1.058,0,0,1,1.057,1.057Z" transform="translate(-133.974 -122.025)"/><path class="c" d="M4.08,38.213a.738.738,0,0,0-.478.275L1.7,40.9V38.482a.277.277,0,0,0-.273-.277.887.887,0,0,1-.873-.884V31.548a.885.885,0,0,1,.884-.884h9.181a.885.885,0,0,1,.884.884v1.068a.277.277,0,1,0,.554,0V31.548a1.44,1.44,0,0,0-1.438-1.438H1.438A1.44,1.44,0,0,0,0,31.548v5.773a1.445,1.445,0,0,0,1.146,1.408v2.45a.45.45,0,0,0,.306.43.463.463,0,0,0,.152.026.45.45,0,0,0,.354-.174L4.037,38.83a.187.187,0,0,1,.121-.069.277.277,0,0,0-.078-.548Z" transform="translate(0 -30.11)"/></g></g></g></svg>