<svg xmlns="http://www.w3.org/2000/svg" width="26" height="26" viewBox="0 0 26 26"><defs><style>.a{fill:#fff;stroke:#707070;opacity:0;}.b{fill:#222d32;stroke:#222d32;stroke-width:0.3px;}.b,.c{fill-rule:evenodd;}.c{fill:#3a9ced;}.d{stroke:none;}.e{fill:none;}</style></defs><g class="a"><rect class="d" width="26" height="26"/><rect class="e" x="0.5" y="0.5" width="25" height="25"/></g><g transform="translate(4 4)"><g transform="translate(0 0)"><g transform="translate(0 0)"><g transform="translate(0 0)"><path class="b" d="M14.35,11.758v3.966a9.434,9.434,0,0,1-.183,2.671q-.021.076-.045.151a2.663,2.663,0,0,1-1.591,1.58l-.136.04a9.43,9.43,0,0,1-2.671.183H5.381a9.425,9.425,0,0,1-2.671-.183q-.075-.021-.151-.045A2.663,2.663,0,0,1,.978,18.531C.967,18.5.952,18.446.938,18.4a9.434,9.434,0,0,1-.183-2.671V11.381A9.428,9.428,0,0,1,.938,8.709q.021-.075.044-.151A2.663,2.663,0,0,1,2.573,6.978l.135-.039a9.429,9.429,0,0,1,2.672-.183H9.347a.378.378,0,1,0,0-.755H5.381a9.864,9.864,0,0,0-2.871.21q-.089.025-.179.053A3.432,3.432,0,0,0,.268,8.315c-.024.075-.042.134-.058.194A9.863,9.863,0,0,0,0,11.381v4.344a9.869,9.869,0,0,0,.21,2.871q.025.09.053.179a3.432,3.432,0,0,0,2.053,2.062c.075.024.134.042.194.058a9.86,9.86,0,0,0,2.871.21H9.724A9.865,9.865,0,0,0,12.6,20.9q.09-.025.179-.053a3.432,3.432,0,0,0,2.063-2.052c.024-.075.042-.135.058-.195a9.87,9.87,0,0,0,.21-2.871V11.758a.378.378,0,1,0-.755,0Z" transform="translate(0 -3.325)"/><path class="c" d="M32.6,6.792a3.2,3.2,0,1,0-3.2-3.2,3.2,3.2,0,0,0,3.2,3.2Z" transform="translate(-18.733 0.225)"/></g></g></g></g></svg>