<svg xmlns="http://www.w3.org/2000/svg" width="13.519" height="14.984" viewBox="0 0 13.519 14.984">
  <g id="noun_notification_1594291" transform="translate(-24.9 -22.15)">
    <g id="Group_2736" data-name="Group 2736" transform="translate(25 22.25)">
      <g id="Group_2735" data-name="Group 2735">
        <path id="Path_26959" data-name="Path 26959" d="M33.786,35.036a2.131,2.131,0,0,1-4.254,0h-4A.532.532,0,0,1,25,34.5v-.8a1.333,1.333,0,0,1,1.332-1.332.267.267,0,0,0,.266-.267v-3.2a5.062,5.062,0,0,1,3.6-4.846v-.348a1.465,1.465,0,1,1,2.93,0v.348a5.063,5.063,0,0,1,3.6,4.846v3.2a.265.265,0,0,0,.266.267A1.334,1.334,0,0,1,38.319,33.7v.8a.534.534,0,0,1-.533.532Zm-.534,0H30.067a1.6,1.6,0,0,0,3.186,0Zm4.533-.533s0-.8,0-.8a.8.8,0,0,0-.8-.8.8.8,0,0,1-.8-.8v-3.2a4.53,4.53,0,0,0-3.4-4.386l-.2-.051v-.757a.932.932,0,1,0-1.865,0v.757l-.2.051a4.529,4.529,0,0,0-3.4,4.386v3.2a.8.8,0,0,1-.8.8.8.8,0,0,0-.8.8v.8Z" transform="translate(-25 -22.25)" fill="#394255" stroke="#394255" stroke-width="0.2"/>
      </g>
    </g>
  </g>
</svg>
