<svg xmlns="http://www.w3.org/2000/svg" width="26" height="26" viewBox="0 0 26 26"><defs><style>.a{fill:none;opacity:0.51;}.b{fill:#222d32;stroke:#222d32;stroke-width:0.4px;}</style></defs><g transform="translate(26 0) rotate(90)"><rect class="a" width="26" height="26" transform="translate(0 26) rotate(-90)"/><path class="b" d="M22.418,18.207H7.687a1.737,1.737,0,0,0-1.735,1.735v9.667a1.737,1.737,0,0,0,1.735,1.735H22.418a1.737,1.737,0,0,0,1.735-1.735V19.942A1.737,1.737,0,0,0,22.418,18.207Zm1.115,11.4a1.117,1.117,0,0,1-1.115,1.115H7.687a1.117,1.117,0,0,1-1.115-1.115V22.615H23.534v6.995Zm0-7.614H6.572V19.942a1.117,1.117,0,0,1,1.115-1.115H22.418a1.117,1.117,0,0,1,1.115,1.115v2.053ZM8.121,25.025h9.16a.31.31,0,0,0,0-.62H8.121a.31.31,0,0,0,0,.62Zm0,1.928h3.237a.31.31,0,0,0,0-.62H8.121a.31.31,0,0,0,0,.62Zm10.813-1.928h2.755a.31.31,0,1,0,0-.62H18.934a.31.31,0,1,0,0,.62Z" transform="translate(-11.344 27.961) rotate(-90)"/></g></svg>