<svg xmlns="http://www.w3.org/2000/svg" width="22" height="22" viewBox="0 0 22 22">
  <g id="stream_footages_icon" transform="translate(8446 1403.621)">
    <g id="noun_restart_1543511" transform="translate(-8426.66 -1384.006) rotate(180)">
      <g id="Group_2733" data-name="Group 2733">
        <path id="Path_26955" data-name="Path 26955" d="M5.678,0a.42.42,0,0,1,.428.42V7.932a.42.42,0,0,1-.663.342Q2.8,6.4.176,4.517A.42.42,0,0,1,0,4.176a.42.42,0,0,1,.176-.342Q2.8,1.95,5.442.078A.424.424,0,0,1,5.678,0ZM5.266,1.234Q3.2,2.7,1.142,4.176,3.2,5.652,5.266,7.118Z" transform="translate(4.388 4.128)" fill="#384255" fill-rule="evenodd"/>
        <path id="Path_26956" data-name="Path 26956" d="M8.3,0A8.307,8.307,0,1,1,0,8.3,8.311,8.311,0,0,1,8.3,0Zm0,.84A7.468,7.468,0,1,0,15.775,8.3,7.457,7.457,0,0,0,8.3.84Z" fill="#384255" fill-rule="evenodd"/>
      </g>
    </g>
    <g id="Group_2746" data-name="Group 2746" transform="translate(-8446 -1403.621)">
      <g id="Group_2741" data-name="Group 2741">
        <g id="Group_2740" data-name="Group 2740">
          <rect id="Rectangle_3000" data-name="Rectangle 3000" width="22" height="22" fill="#fff" opacity="0"/>
        </g>
      </g>
    </g>
  </g>
</svg>
