<svg xmlns="http://www.w3.org/2000/svg" width="26" height="26" viewBox="0 0 26 26"><defs><style>.a{fill:#fff;opacity:0;}.b{fill:#222d32;stroke:#222d32;stroke-width:0.6px;fill-rule:evenodd;}</style></defs><path class="a" d="M0,0H26V26H0Z"/><path class="b" d="M16.3,976.06a3.512,3.512,0,0,0-3.43,3.58,3.6,3.6,0,0,0,1.942,3.225,6.542,6.542,0,0,0-2.269,1.03c-.98.825.629-.487-.408.313A7.1,7.1,0,0,0,9.6,989.689a.253.253,0,1,0,.506,0,6.338,6.338,0,0,1,6.2-6.469,6,6,0,0,1,3.662,1.248.223.223,0,0,0,.031.023,6.554,6.554,0,0,1,2.507,5.2.253.253,0,1,0,.506,0,7.1,7.1,0,0,0-2.54-5.482,3.371,3.371,0,0,1,2.794-1.511,3.491,3.491,0,0,1,3.42,3.569.253.253,0,1,0,.506,0,4.087,4.087,0,0,0-2.735-3.9,2.6,2.6,0,0,0,1.279-2.256,2.472,2.472,0,1,0-4.939,0,2.6,2.6,0,0,0,1.278,2.256,3.947,3.947,0,0,0-2.011,1.534,6.54,6.54,0,0,0-2.27-1.03,3.6,3.6,0,0,0,1.942-3.225,3.512,3.512,0,0,0-3.43-3.579Zm0,.528a3.054,3.054,0,1,1-2.924,3.051A2.986,2.986,0,0,1,16.3,976.588Zm6.959,1.469A2.049,2.049,0,1,1,21.3,980.1,2,2,0,0,1,23.262,978.057Z" transform="translate(-5.46 -969.56)"/></svg>