<svg xmlns="http://www.w3.org/2000/svg" width="22" height="22" viewBox="0 0 22 22">
  <g id="user_roles_icon" transform="translate(8444 1440)">
    <g id="Group_2741" data-name="Group 2741" transform="translate(-8444 -1440)">
      <g id="Group_2740" data-name="Group 2740">
        <path id="Path_26976" data-name="Path 26976" d="M0,0H22V22H0Z" fill="#fff" opacity="0"/>
      </g>
    </g>
    <path id="Path_26960" data-name="Path 26960" d="M15.271,976.06a2.971,2.971,0,0,0-2.9,3.029,3.046,3.046,0,0,0,1.644,2.729,5.534,5.534,0,0,0-1.92.871c-.83.7.532-.412-.345.265A6.01,6.01,0,0,0,9.6,987.592a.214.214,0,1,0,.428,0,5.363,5.363,0,0,1,5.246-5.474,5.078,5.078,0,0,1,3.1,1.056.184.184,0,0,0,.026.02,5.546,5.546,0,0,1,2.121,4.4.214.214,0,1,0,.428,0,6.01,6.01,0,0,0-2.15-4.638,2.853,2.853,0,0,1,2.364-1.279,2.954,2.954,0,0,1,2.894,3.02.214.214,0,1,0,.428,0,3.458,3.458,0,0,0-2.314-3.3,2.2,2.2,0,0,0,1.083-1.909,2.091,2.091,0,1,0-4.179,0,2.2,2.2,0,0,0,1.082,1.909,3.34,3.34,0,0,0-1.7,1.3,5.532,5.532,0,0,0-1.921-.872,3.046,3.046,0,0,0,1.643-2.729,2.971,2.971,0,0,0-2.9-3.029Zm0,.447a2.584,2.584,0,1,1-2.474,2.582A2.527,2.527,0,0,1,15.271,976.507Zm5.889,1.243a1.734,1.734,0,1,1-1.66,1.732A1.7,1.7,0,0,1,21.16,977.75Z" transform="translate(-8450.097 -2410.56)" fill="#394255" stroke="#394255" stroke-width="0.4" fill-rule="evenodd"/>
  </g>
</svg>
