<svg xmlns="http://www.w3.org/2000/svg" width="22" height="22" viewBox="0 0 22 22">
  <g id="user_accounts_icon" transform="translate(8444 1440)">
    <g id="Group_2730" data-name="Group 2730" transform="translate(-8440 -1436)">
      <path id="Path_26946" data-name="Path 26946" d="M30.33,976.06a3.488,3.488,0,0,0-1.513,6.631,6.786,6.786,0,0,0-2.307,1c-.522.383.19-.141-.415.305a6.81,6.81,0,0,0-2.585,5.343.257.257,0,1,0,.515,0,6.307,6.307,0,0,1,10.03-5.089.257.257,0,0,0,.031.023,6.3,6.3,0,0,1,2.549,5.066.257.257,0,0,0,.515,0A6.81,6.81,0,0,0,34.567,984c-.475-.349-.065-.052-.415-.305a6.782,6.782,0,0,0-2.308-1,3.488,3.488,0,0,0-1.513-6.631Zm0,.515a2.974,2.974,0,1,1-2.974,2.974A2.97,2.97,0,0,1,30.33,976.575Z" transform="translate(-23.51 -976.06)" fill="#384255" stroke="#384255" stroke-width="0.3" fill-rule="evenodd"/>
    </g>
    <g id="Group_2741" data-name="Group 2741" transform="translate(-8444 -1440)">
      <g id="Group_2740" data-name="Group 2740">
        <rect id="Rectangle_3000" data-name="Rectangle 3000" width="22" height="22" fill="#fff" opacity="0"/>
      </g>
    </g>
  </g>
</svg>
