<svg xmlns="http://www.w3.org/2000/svg" width="26" height="26" viewBox="0 0 26 26"><defs><style>.a{fill:#fff;opacity:0;}.b{fill:#222d32;stroke:#222d32;stroke-width:0.5px;fill-rule:evenodd;}</style></defs><rect class="a" width="26" height="26"/><g transform="translate(4.728 4.728)"><path class="b" d="M31.57,976.06a4.123,4.123,0,0,0-1.788,7.837,8.018,8.018,0,0,0-2.727,1.185c-.617.452.224-.166-.49.36a8.049,8.049,0,0,0-3.055,6.314.3.3,0,1,0,.609,0,7.453,7.453,0,0,1,11.853-6.014.308.308,0,0,0,.037.027,7.439,7.439,0,0,1,3.013,5.987.3.3,0,0,0,.609,0,8.048,8.048,0,0,0-3.053-6.313c-.562-.413-.077-.061-.49-.361a8.017,8.017,0,0,0-2.728-1.186,4.122,4.122,0,0,0-1.789-7.837Zm0,.608a3.514,3.514,0,1,1-3.514,3.514A3.51,3.51,0,0,1,31.57,976.668Z" transform="translate(-23.51 -976.06)"/></g></svg>