<svg xmlns="http://www.w3.org/2000/svg" width="26" height="26" viewBox="0 0 26 26"><defs><style>.a{fill:#fff;opacity:0;}.b{fill:#222d32;stroke:#222d32;stroke-width:0.4px;}</style></defs><path class="a" d="M0,0H26V26H0Z"/><g transform="translate(-1.412 -7.75)"><g transform="translate(4.766 18.769)"><path class="b" d="M22.633,38.434a1.33,1.33,0,0,1,1.328,1.328v4.408H6.794V39.763a1.33,1.33,0,0,1,1.328-1.328H22.633m0-.69H8.123A2.019,2.019,0,0,0,6.1,39.763v5.1H24.652v-5.1a2.019,2.019,0,0,0-2.019-2.019Z" transform="translate(-6.104 -37.744)"/></g><g transform="translate(5.814 25.205)"><path class="b" d="M13.989,69.2V70.37a.984.984,0,0,1-.983.983H12.79a.984.984,0,0,1-.983-.983V69.2h2.183m.69-.69H11.116V70.37a1.674,1.674,0,0,0,1.674,1.674h.217A1.674,1.674,0,0,0,14.68,70.37V68.506Z" transform="translate(-11.116 -68.506)"/></g><g transform="translate(18.729 25.196)"><path class="b" d="M75.725,69.155v1.182a.984.984,0,0,1-.983.983h-.217a.984.984,0,0,1-.983-.983V69.155h2.183m.69-.69H72.852v1.873a1.674,1.674,0,0,0,1.674,1.674h.217a1.674,1.674,0,0,0,1.674-1.674V68.465Z" transform="translate(-72.852 -68.465)"/></g><g transform="translate(6.901 20.885)"><path class="b" d="M17.771,48.546a.7.7,0,0,1,.7.7v.073a.7.7,0,0,1-.7.7H17.7a.7.7,0,0,1-.7-.7v-.073a.7.7,0,0,1,.7-.7h.073m0-.69H17.7a1.389,1.389,0,0,0-1.389,1.389v.073A1.389,1.389,0,0,0,17.7,50.707h.073a1.389,1.389,0,0,0,1.389-1.389v-.073a1.389,1.389,0,0,0-1.389-1.389Z" transform="translate(-16.309 -47.856)"/></g><g transform="translate(18.343 20.885)"><path class="b" d="M72.466,48.546a.7.7,0,0,1,.7.7v.073a.7.7,0,0,1-.7.7h-.073a.7.7,0,0,1-.7-.7v-.073a.7.7,0,0,1,.7-.7h.073m0-.69h-.073A1.389,1.389,0,0,0,71,49.245v.073a1.389,1.389,0,0,0,1.389,1.389h.073a1.389,1.389,0,0,0,1.389-1.389v-.073a1.389,1.389,0,0,0-1.389-1.389Z" transform="translate(-71.004 -47.856)"/></g><g transform="translate(6.701 13.75)"><path class="b" d="M27.457,14.44a1.25,1.25,0,0,1,1.137,1.094l.615,3.2h-13l.673-3.224a1.234,1.234,0,0,1,1.133-1.069h9.446m0-.69H18.011A1.922,1.922,0,0,0,16.2,15.369l-.846,4.056H30.045l-.772-4.02a1.926,1.926,0,0,0-1.816-1.654Z" transform="translate(-15.356 -13.75)"/></g><g transform="translate(21.06 18.02)"><path class="b" d="M86.628,34.162H83.994v.71h2.634Z" transform="translate(-83.994 -34.162)"/></g><g transform="translate(4.412 18.02)"><path class="b" d="M7.046,34.162H4.412v.71H7.046Z" transform="translate(-4.412 -34.162)"/></g></g></svg>