<svg xmlns="http://www.w3.org/2000/svg" width="26" height="26" viewBox="0 0 26 26"><defs><style>.a{fill:none;opacity:0.51;}.b{fill:#222d32;stroke:#222d32;stroke-width:0.3px;}</style></defs><g transform="translate(26 0) rotate(90)"><rect class="a" width="26" height="26" transform="translate(0 26) rotate(-90)"/><g transform="translate(-3.119 40) rotate(-90)"><path class="b" d="M34.4,10.363a1.072,1.072,0,0,0-.43-.71L27.91,5.211a1.081,1.081,0,0,0-1.516.233L19.531,14.8a1.086,1.086,0,0,0,.233,1.507l3.495,2.573-.408.755a1.342,1.342,0,0,0,1.18,1.966h.012a5.9,5.9,0,0,0-.511,2.055,6.921,6.921,0,0,0,.666,2.871,1.084,1.084,0,0,0,.963.595h4.06a1.089,1.089,0,0,0,1.03-.737,36.838,36.838,0,0,0,1.72-6.228c0-1.086-.423-4.478-.519-5.247L34.2,11.169a1.074,1.074,0,0,0,.2-.806ZM23.759,20.781a.58.58,0,0,1-.246-.786l.356-.661.941.691c-.081.143-.182.327-.292.543A.578.578,0,0,1,23.759,20.781Zm5.771,5.355a.324.324,0,0,1-.307.219h-4.06a.324.324,0,0,1-.288-.174,6.171,6.171,0,0,1-.58-2.519,6.092,6.092,0,0,1,.646-2.212v.182a.381.381,0,1,0,.762,0V17.854a.72.72,0,0,1,1.44,0v3.787a.381.381,0,1,0,.762,0V19.746l1.106-1.507.091,1.123a.378.378,0,0,0,.378.349h.032a.381.381,0,0,0,.349-.41l-.162-2,1.1-1.487c.157,1.3.415,3.546.415,4.353A34.714,34.714,0,0,1,29.529,26.136Zm4.055-15.42L27.9,18.461v-.607a1.482,1.482,0,0,0-2.964,0v1.312L20.215,15.7a.324.324,0,0,1-.069-.452l6.862-9.354a.31.31,0,0,1,.211-.128.324.324,0,0,1,.246.057l6.051,4.443a.315.315,0,0,1,.128.211.327.327,0,0,1-.059.241Z"/></g></g></svg>