<svg xmlns="http://www.w3.org/2000/svg" width="16" height="16" viewBox="0 0 16 16">
  <g id="check-square" transform="translate(-0.6 -0.6)">
    <g id="Rectangle_732" data-name="Rectangle 732" transform="translate(0.6 0.6)" fill="#3a9ced" stroke="#3a9ced" stroke-width="1">
      <rect width="16" height="16" rx="4" stroke="none"/>
      <rect x="0.5" y="0.5" width="15" height="15" rx="3.5" fill="none"/>
    </g>
    <path id="Path_497" data-name="Path 497" d="M8.393,13.653a.231.231,0,0,0,.147.054.224.224,0,0,0,.108-.029.22.22,0,0,0,.029-.023.236.236,0,0,0,.052-.043l5.174-6.5a.314.314,0,0,0-.019-.4.233.233,0,0,0-.358.021L8.5,13.038,5,10.193a.236.236,0,0,0-.354.066.311.311,0,0,0,.058.4Z" transform="translate(-0.499 -1.68)" fill="#fff" stroke="#fff" stroke-width="0.5"/>
  </g>
</svg>
