<svg xmlns="http://www.w3.org/2000/svg" width="69.186" height="66.116" viewBox="0 0 69.186 66.116">
  <g id="done_image" transform="translate(-312 -103.889)">
    <path id="Path_1398" data-name="Path 1398" d="M326.214,161.076c-17.493,0-24.089-16.9-24.089-34.391A31.761,31.761,0,0,1,333.851,94.96c17.493,0,37.461,7.994,37.461,25.488S343.708,161.076,326.214,161.076Z" transform="translate(9.874 8.929)" fill="#7ed321" opacity="0.2"/>
    <path id="Path_1400" data-name="Path 1400" d="M332.87,161.472c-15.115,0-23.483-22.16-24.376-35.752s9.262-21.939,24.376-21.939,30.987,11.842,30.987,26.957S347.986,161.472,332.87,161.472Z" transform="translate(7.281 4.877)" fill="#7ed321" opacity="0.5"/>
    <path id="Path_1402" data-name="Path 1402" d="M363.788,133.521c2.984-19.238-10.342-23.1-23.1-23.1a23.1,23.1,0,0,0-23.1,23.1c0,12.758,7.745,20.983,23.1,22.2S360.8,152.759,363.788,133.521Z" transform="translate(3.038 2.094)" fill="#7ed321"/>
    <path id="Path_1403" data-name="Path 1403" d="M360.839,136.808a2.035,2.035,0,0,0-2.859.143l-12.093,12.092-3.935-3.936a1.93,1.93,0,1,0-2.716,2.716l5.3,5.284a2.035,2.035,0,0,0,2.859-.143l13.3-13.3A2.035,2.035,0,0,0,360.839,136.808Z" transform="translate(-6.24 -9.343)" fill="#fff"/>
  </g>
</svg>
