<svg id="big_edit_icon" xmlns="http://www.w3.org/2000/svg" width="18.503" height="18.5" viewBox="0 0 18.503 18.5">
  <path id="Path_27174" data-name="Path 27174" d="M17.3,1.225a4.081,4.081,0,0,0-5.776,0L.94,11.811a.53.53,0,0,0-.15.3L.005,17.925a.528.528,0,0,0,.15.445.539.539,0,0,0,.375.158.428.428,0,0,0,.071,0l3.5-.473a.533.533,0,1,0-.142-1.057l-2.807.378L1.7,13.32l4.266,4.266a.539.539,0,0,0,.375.158.522.522,0,0,0,.375-.158L17.3,7a4.078,4.078,0,0,0,0-5.775Zm-5.571,1.3L13.512,4.3,3.849,13.967,2.071,12.189ZM6.345,16.459,4.606,14.72l9.663-9.663L16.008,6.8Zm10.4-10.423L12.5,1.781a3.022,3.022,0,0,1,4.254,4.254Z" transform="translate(0 -0.028)" fill="white"/>
</svg>
