<svg xmlns="http://www.w3.org/2000/svg" width="24" height="24" viewBox="0 0 24 24">
  <g id="error_icon" transform="translate(-277 -267)">
    <rect id="Rectangle_761" data-name="Rectangle 761" width="24" height="24" transform="translate(277 267)" fill="#fff" opacity="0"/>
    <g id="attention_1_" data-name="attention (1)" transform="translate(279 247.667)">
      <g id="Group_1740" data-name="Group 1740" transform="translate(0 21.333)">
        <g id="Group_1739" data-name="Group 1739">
          <path id="Path_1301" data-name="Path 1301" d="M20.773,37.845h0c-1.4-2.863-3.735-6.923-5.8-10.505-1.08-1.875-2.1-3.645-2.838-4.991a1.855,1.855,0,0,0-3.308,0c-.738,1.346-1.759,3.119-2.84,4.995-2.063,3.581-4.4,7.64-5.8,10.5a1.861,1.861,0,0,0-.187.82A1.881,1.881,0,0,0,1.872,40.55h17.22a1.881,1.881,0,0,0,1.872-1.886A1.861,1.861,0,0,0,20.773,37.845Zm-1.681,1.832H1.873a1.007,1.007,0,0,1-1-1.013.993.993,0,0,1,.1-.437c1.382-2.835,3.712-6.88,5.768-10.448,1.083-1.88,2.107-3.657,2.849-5.012a1.011,1.011,0,0,1,1.776,0c.742,1.354,1.764,3.128,2.847,5.007,2.057,3.57,4.388,7.617,5.771,10.452a.991.991,0,0,1,.1.437,1.007,1.007,0,0,1-.992,1.014Z" transform="translate(0 -21.333)" fill="#fb7b63"/>
          <path id="Path_1302" data-name="Path 1302" d="M245.83,128.01a.462.462,0,0,0-.5.416v8.323a.5.5,0,0,0,.994,0v-8.323a.462.462,0,0,0-.494-.416Z" transform="translate(-235.348 -123.436)" fill="#fb7b63"/>
          <circle id="Ellipse_322" data-name="Ellipse 322" cx="0.497" cy="0.497" r="0.497" transform="translate(9.985 15.24)" fill="#fb7b63"/>
        </g>
      </g>
    </g>
  </g>
</svg>
