<svg xmlns="http://www.w3.org/2000/svg" width="17.654" height="16" viewBox="0 0 17.654 16">
  <g id="export_icon" transform="translate(1.654)">
    <rect id="Rectangle_3013" data-name="Rectangle 3013" width="16" height="16" fill="none" opacity="0"/>
    <g id="download" transform="translate(-1.654 -15.424)">
      <g id="Group_3076" data-name="Group 3076" transform="translate(0 17.25)">
        <path id="Path_27069" data-name="Path 27069" d="M13.807,228.21a.406.406,0,0,0-.407.407v3.7a1.827,1.827,0,0,1-1.825,1.825H2.639a1.827,1.827,0,0,1-1.825-1.825v-3.765a.407.407,0,0,0-.814,0v3.765a2.642,2.642,0,0,0,2.639,2.639h8.935a2.642,2.642,0,0,0,2.639-2.639v-3.7A.407.407,0,0,0,13.807,228.21Z" transform="translate(0 -221.788)" fill="#fff"/>
        <path id="Path_27070" data-name="Path 27070" d="M138.936,27.189a.41.41,0,0,0,.287.121.4.4,0,0,0,.287-.121L142.1,24.6a.407.407,0,0,0-.576-.576l-1.891,1.894V17.657a.407.407,0,0,0-.814,0v8.262l-1.894-1.894a.407.407,0,1,0-.576.576Z" transform="translate(-132.116 -17.25)" fill="#fff"/>
      </g>
    </g>
  </g>
</svg>
