<svg xmlns="http://www.w3.org/2000/svg" width="10.408" height="10.408" viewBox="0 0 10.408 10.408">
  <g id="info_icon" transform="translate(0.1 0.1)" opacity="0.8">
    <path id="Path_27078" data-name="Path 27078" d="M5.1,0a5.1,5.1,0,1,0,5.1,5.1A5.11,5.11,0,0,0,5.1,0Zm0,9.815A4.711,4.711,0,1,1,9.815,5.1,4.717,4.717,0,0,1,5.1,9.815Z" fill="#3a9ced" stroke="#3a9ced" stroke-width="0.2"/>
    <path id="Path_27079" data-name="Path 27079" d="M25.2,37a.2.2,0,0,0-.2.2v.393a.2.2,0,1,0,.393,0V37.2A.2.2,0,0,0,25.2,37Z" transform="translate(-20.092 -29.737)" fill="#3a9ced" stroke="#3a9ced" stroke-width="0.2"/>
    <path id="Path_27080" data-name="Path 27080" d="M19.593,9H19.57A1.571,1.571,0,0,0,18,10.57a.2.2,0,0,0,.393,0,1.178,1.178,0,0,1,1.195-1.178,1.2,1.2,0,0,1,1.161,1.161,1.172,1.172,0,0,1-.54,1.007,1.872,1.872,0,0,0-.834,1.592v.558a.2.2,0,1,0,.393,0v-.558a1.5,1.5,0,0,1,.654-1.263,1.563,1.563,0,0,0,.72-1.343A1.581,1.581,0,0,0,19.593,9Z" transform="translate(-14.466 -7.233)" fill="#3a9ced" stroke="#3a9ced" stroke-width="0.2"/>
  </g>
</svg>
