<svg xmlns="http://www.w3.org/2000/svg" width="24" height="24" viewBox="0 0 24 24">
  <g id="location_icon" transform="translate(-226 -151)">
    <path id="Path_26956" data-name="Path 26956" d="M0,0H24V24H0Z" transform="translate(226 151)" fill="#fff" opacity="0"/>
    <g id="placeholder" transform="translate(230.945 154.1)">
      <g id="Group_2783" data-name="Group 2783">
        <path id="Path_26954" data-name="Path 26954" d="M54.507,0A7.316,7.316,0,0,0,47.2,7.307a7.192,7.192,0,0,0,.13,1.372c0,.027.019.107.05.245a7.2,7.2,0,0,0,.489,1.441,20.483,20.483,0,0,0,6.317,7.75.517.517,0,0,0,.65,0,20.521,20.521,0,0,0,6.317-7.75,7.115,7.115,0,0,0,.489-1.441c.031-.138.046-.218.05-.245a7.514,7.514,0,0,0,.13-1.372A7.328,7.328,0,0,0,54.507,0Zm6.16,8.5c0,.008,0,.015,0,.023s-.015.076-.034.164v.008A6.066,6.066,0,0,1,60.2,9.94s0,.011-.008.015a19.115,19.115,0,0,1-5.69,7.093,19.115,19.115,0,0,1-5.69-7.093s0-.011-.008-.015a6.471,6.471,0,0,1-.424-1.246V8.686c-.023-.088-.031-.145-.034-.164s0-.015,0-.027a6.274,6.274,0,1,1,12.32,0Z" transform="translate(-47.2)" fill="#eaebf4"/>
        <path id="Path_26955" data-name="Path 26955" d="M120.863,71.9a3.863,3.863,0,1,0,3.863,3.863A3.869,3.869,0,0,0,120.863,71.9Zm0,6.867a3,3,0,1,1,3-3A3.007,3.007,0,0,1,120.863,78.767Z" transform="translate(-113.556 -68.376)" fill="#eaebf4"/>
      </g>
    </g>
  </g>
</svg>
