<svg xmlns="http://www.w3.org/2000/svg" xmlns:xlink="http://www.w3.org/1999/xlink" width="46.502" height="47.135" viewBox="0 0 46.502 47.135">
  <defs>
    <linearGradient id="linear-gradient" x1="0.5" x2="0.5" y2="1" gradientUnits="objectBoundingBox">
      <stop offset="0" stop-color="#5b5994"/>
      <stop offset="1" stop-color="#4c4c7c"/>
    </linearGradient>
  </defs>
  <g id="logo" transform="translate(0 -0.083)">
    <g id="Group_3266" data-name="Group 3266" transform="translate(0 25.591)">
      <g id="Group_3265" data-name="Group 3265" transform="translate(0)">
        <g id="Group_3264" data-name="Group 3264">
          <g id="Group_3249" data-name="Group 3249">
            <path id="Path_27179" data-name="Path 27179" d="M23.751,561.827a47.224,47.224,0,0,1-9.052-.85,32.2,32.2,0,0,1-7.39-2.318,15.478,15.478,0,0,1-4.982-3.438,5.757,5.757,0,0,1,0-8.415,15.551,15.551,0,0,1,4.982-3.438,32.671,32.671,0,0,1,7.39-2.319,47.193,47.193,0,0,1,9.052-.85,47.229,47.229,0,0,1,9.052.85,32.2,32.2,0,0,1,7.39,2.319,15.477,15.477,0,0,1,4.982,3.438,5.757,5.757,0,0,1,0,8.415,15.551,15.551,0,0,1-4.982,3.438,32.668,32.668,0,0,1-7.39,2.318A47.26,47.26,0,0,1,23.751,561.827Zm0-20.371a41.821,41.821,0,0,0-8,.751,28.723,28.723,0,0,0-6.535,2.049,13.7,13.7,0,0,0-4.406,3.036,5.094,5.094,0,0,0,0,7.442,13.63,13.63,0,0,0,4.406,3.036,28.726,28.726,0,0,0,6.535,2.049,41.447,41.447,0,0,0,8,.751,41.821,41.821,0,0,0,8-.751,28.726,28.726,0,0,0,6.535-2.049,13.7,13.7,0,0,0,4.406-3.036,5.094,5.094,0,0,0,0-7.442,13.63,13.63,0,0,0-4.406-3.036,28.723,28.723,0,0,0-6.535-2.049A41.821,41.821,0,0,0,23.751,541.456Z" transform="translate(-0.5 -540.2)" fill="#f6dd69" opacity="0.35"/>
            <ellipse id="Ellipse_340" data-name="Ellipse 340" cx="21.065" cy="9.793" rx="21.065" ry="9.793" transform="translate(2.186 1.02)" fill="#fff"/>
            <path id="Path_27180" data-name="Path 27180" d="M50.905,553.987c11.635,0,21.065,4.387,21.065,9.793s-9.43,9.793-21.065,9.793-21.065-4.382-21.065-9.793,9.43-9.793,21.065-9.793m0-.387a44.142,44.142,0,0,0-8.528.8,30.6,30.6,0,0,0-6.96,2.182,14.688,14.688,0,0,0-4.694,3.234,5.426,5.426,0,0,0,0,7.933,14.7,14.7,0,0,0,4.694,3.239,30.451,30.451,0,0,0,6.96,2.182,45.7,45.7,0,0,0,17.056,0,30.609,30.609,0,0,0,6.96-2.182,14.621,14.621,0,0,0,4.694-3.239,5.426,5.426,0,0,0,0-7.933,14.613,14.613,0,0,0-4.694-3.234,30.439,30.439,0,0,0-6.96-2.182,44.178,44.178,0,0,0-8.528-.8Z" transform="translate(-27.654 -552.967)" fill="#f6dd69" opacity="0.32"/>
          </g>
          <g id="Group_3250" data-name="Group 3250" transform="translate(5.902 2.753)">
            <ellipse id="Ellipse_341" data-name="Ellipse 341" cx="16.508" cy="7.673" rx="16.508" ry="7.673" transform="translate(0.841 0.387)" fill="#5b5994"/>
            <path id="Path_27181" data-name="Path 27181" d="M142.849,598.887c9.118,0,16.508,3.438,16.508,7.673s-7.395,7.673-16.508,7.673-16.508-3.433-16.508-7.673,7.39-7.673,16.508-7.673m0-.387a35.133,35.133,0,0,0-6.752.633,24.263,24.263,0,0,0-5.515,1.728,11.555,11.555,0,0,0-3.716,2.564,4.3,4.3,0,0,0,0,6.28,11.63,11.63,0,0,0,3.716,2.564A24.11,24.11,0,0,0,136.1,614a36.346,36.346,0,0,0,13.5,0,24.26,24.26,0,0,0,5.515-1.728,11.5,11.5,0,0,0,3.716-2.564,4.3,4.3,0,0,0,0-6.28,11.628,11.628,0,0,0-3.716-2.564,24.11,24.11,0,0,0-5.515-1.728,35.133,35.133,0,0,0-6.752-.633Z" transform="translate(-125.5 -598.5)" fill="#f6dd69"/>
          </g>
          <g id="Group_3252" data-name="Group 3252" transform="translate(14.84 6.918)">
            <g id="Group_3251" data-name="Group 3251">
              <path id="Path_27182" data-name="Path 27182" d="M323.27,696.3l-1.044-.449c-8.075-3.891-7.451-9.043-7.451-9.043a11.98,11.98,0,0,0,4.528.817,7.616,7.616,0,0,0,3.8-.836,7.765,7.765,0,0,0,4.033.784,9.193,9.193,0,0,0,4.075-.874s.4,5.468-6.913,9.146Z" transform="translate(-314.764 -686.7)" fill="#b64e4a"/>
            </g>
          </g>
          <g id="Group_3255" data-name="Group 3255" transform="translate(17.745 8.495)">
            <g id="Group_3254" data-name="Group 3254" transform="translate(0.245)">
              <path id="Path_27183" data-name="Path 27183" d="M384.9,737.406s-.349.307-.326.416c.033.165.25.165.1.288-.118.1-.34,0-.34,0s-.708-.25-.921-.345a9.858,9.858,0,0,0-1.209-.689.44.44,0,0,0-.364.085l-.283.179s.5.179.7.241a2.749,2.749,0,0,1,.637.387c.279.184,1.223.7,1.223.7a17.985,17.985,0,0,0-2,.033,2.417,2.417,0,0,0-.6.274s-.109.132.066.264a.654.654,0,0,0,.364.118c.246-.061.146-.288.354-.354a4.987,4.987,0,0,1,1.544.009,15.332,15.332,0,0,1,1.823.477c.1.033.368.151.368.151s-.892.066-1.166.118a2.881,2.881,0,0,0-.746.246c-.071.057-.165.189-.118.25a1.053,1.053,0,0,0,.42.189c.288.066,1.421.151,1.251.227a5.289,5.289,0,0,1-.623.038,5.869,5.869,0,0,0-.921.038c-.1.038-.208.146-.151.222a.969.969,0,0,0,.463.161,1.218,1.218,0,0,0,.43-.076,4.058,4.058,0,0,1,.453-.165,1.866,1.866,0,0,1,.553.038,1.269,1.269,0,0,0,.4.066,1.457,1.457,0,0,0,.425-.028c.222-.052.255-.109.212-.17-.142-.208-.51-.132-.623-.194-.076-.042-.128-.123-.061-.17a2.11,2.11,0,0,1,1-.132c.383.085.345.34.463.453s.652.241.793.349a.363.363,0,0,1,0,.491c-.1.09-.671.132-.7.227-.009.033.128.08.194.09.113.014.472,0,.472,0a4.594,4.594,0,0,0,.472-.076,1.656,1.656,0,0,0,.26-.137l.212-.467s.227-.128.212-.179c-.028-.094-.326-.236-.4-.326a.384.384,0,0,1,.057-.5c.085-.071.411-.151.51-.217a.539.539,0,0,0,.222-.288.7.7,0,0,0-.156-.416,3.4,3.4,0,0,0-.529-.387c-.123-.076-.345-.241-.449-.321a3.061,3.061,0,0,1-.4-.316.476.476,0,0,1-.066-.557,1.162,1.162,0,0,1,.42-.189c.175-.042.581-.057.746-.1a3.034,3.034,0,0,0,.557-.293l-.231-.024.231-.113h-.817a2.886,2.886,0,0,1-.316.094,2.1,2.1,0,0,0-.392.085c-.066.038-.094.194-.094.194s-.609.387-.373.85c.142.283,1.048.723,1.284.987.118.132.217.439.094.571a2.125,2.125,0,0,1-.439.194,3.845,3.845,0,0,0-.468-.614c-.477-.392-1.237-.59-1.431-.845a1.369,1.369,0,0,1-.175-.689Z" transform="translate(-381.494 -736.202)" fill="#f6dd69"/>
              <g id="Group_3253" data-name="Group 3253" transform="translate(2.043)">
                <path id="Path_27184" data-name="Path 27184" d="M428.244,722.036a.1.1,0,0,1,.019-.028c.024-.028.047-.057.071-.08l.009-.009c.014,0,.019,0,.024,0a.292.292,0,0,0,.246-.019.2.2,0,0,1-.118-.057.146.146,0,0,1-.024-.047.382.382,0,0,0-.09-.165s0,0,0-.009h.014a.58.58,0,0,1,.137.047c.043.019.043.038.071.061a.14.14,0,0,0,.047-.09.055.055,0,0,0-.028-.052.71.71,0,0,0-.061-.047.2.2,0,0,1-.066-.076s0-.009,0-.009h0a.653.653,0,0,0,.3-.038.182.182,0,0,1-.123-.071s0-.009-.009-.014a.236.236,0,0,0-.08-.09.422.422,0,0,1-.047-.043c.009,0,.019,0,.028,0s.109.047.109.052a.734.734,0,0,1-.019-.1c0-.009,0-.024,0-.033a.114.114,0,0,0-.043-.076l-.024-.024h.024a.888.888,0,0,0,.146.019.291.291,0,0,0,0-.066.3.3,0,0,0-.09-.137c-.047-.042-.113-.076-.165-.118a.628.628,0,0,1,.094,0c.024,0,.043,0,.066,0l.066.014.09.014a.458.458,0,0,0,.08,0,.147.147,0,0,0,.1-.038c.009-.009.014-.019.024-.028a.632.632,0,0,1,.057-.057.743.743,0,0,1-.151.009.475.475,0,0,1-.146-.024c-.028-.009-.057-.024-.085-.033a.975.975,0,0,1-.137-.085c-.038-.024-.071-.052-.109-.08-.009-.009-.024-.014-.033-.024a.715.715,0,0,0-.217-.094c-.09-.024-.179-.047-.279-.066a.018.018,0,0,1-.014,0,.059.059,0,0,1,.028,0,.543.543,0,0,0,.094-.028,1.46,1.46,0,0,0-.416-.042h0a.324.324,0,0,1,.057-.028c-.09-.009-.165-.019-.255-.023s-.175,0-.26,0-.142,0-.212.009a1.41,1.41,0,0,0-.293.038c-.024,0-.047.014-.071.019a.758.758,0,0,0-.146,0,1.21,1.21,0,0,0-.25.061.172.172,0,0,0-.09.066c-.009.014-.014.028-.024.043s-.014,0-.024,0a1.265,1.265,0,0,0-.194.033c-.066.014-.132.033-.2.047-.019,0-.024.009-.028.019a.328.328,0,0,1-.024.061.655.655,0,0,0-.288.052c-.019,0-.038,0-.057,0a.452.452,0,0,0-.2.028.158.158,0,0,1-.09.019l-.128.014c-.052,0-.052.009-.057.033a.122.122,0,0,0,.014.08.177.177,0,0,0,.1.071s.009,0,.014,0l0,0a.139.139,0,0,0,.009.061.236.236,0,0,0,.057.066.141.141,0,0,0,.076.028.065.065,0,0,1,.014.019.183.183,0,0,0,.043.042.244.244,0,0,0,.033.014.3.3,0,0,1,.033.009.131.131,0,0,1,0-.043c0-.009,0-.014,0-.023a.042.042,0,0,1,.019-.024c.024,0,.043,0,.066,0a.878.878,0,0,0,.2-.024,1.778,1.778,0,0,1,.241.024l-.047.076a.248.248,0,0,1-.118.085.684.684,0,0,0-.094.024c-.033.009-.071.014-.1.024h-.019c-.024,0-.028-.043-.028-.047a.21.21,0,0,0-.066.028c-.009,0-.014.009-.014.019s0,.009,0,.009-.043,0-.052,0,0,0,0,0a.15.15,0,0,1,.014.042c.028.061.042.033.156.071l.061.014a.3.3,0,0,0,.146,0,.532.532,0,0,0,.071-.028c.019-.014.038-.024.061-.038a.245.245,0,0,1,.061-.028c.014,0,.014,0,.019.009a1.982,1.982,0,0,0,.373.057" transform="translate(-424.762 -720.1)" fill="#f6dd69"/>
              </g>
            </g>
            <path id="Path_27185" data-name="Path 27185" d="M377.48,737.613a.669.669,0,0,0-.434-.076c-.076-.057-.378-.009-.406-.009a.478.478,0,0,1,.222.042c-.038.009-.071.024-.1.033a.872.872,0,0,0-.406.047,1.053,1.053,0,0,1,.269.019.259.259,0,0,0-.038.028.49.49,0,0,0-.283.08s.109,0,.246.009a0,0,0,0,0,0,0,0,0,0,0,0,0,0,.306.306,0,0,0-.194.123,2.233,2.233,0,0,1,.283-.057,2.539,2.539,0,0,0,.963.1C378.028,737.953,377.839,737.844,377.48,737.613Z" transform="translate(-376.3 -736.687)" fill="#f6dd69"/>
            <path id="Path_27186" data-name="Path 27186" d="M381.936,776.751c-.085.052-.076.109-.019.156l.09.052.071.028c-.043.052.161.118.161.118s-.047-.052-.028-.09a.213.213,0,0,0,.052,0c.038.057.179.076.179.076a.42.42,0,0,1-.043-.08h.009s0,0,.009,0a.62.62,0,0,0,.222.033.693.693,0,0,1-.142-.08c.085-.08.042-.227-.057-.331C382.319,776.505,382.2,776.585,381.936,776.751Z" transform="translate(-381.611 -773.903)" fill="#f6dd69"/>
          </g>
          <g id="Group_3257" data-name="Group 3257" transform="translate(14.839 6.913)">
            <g id="Group_3256" data-name="Group 3256">
              <path id="Path_27187" data-name="Path 27187" d="M323.109,687.053a9.224,9.224,0,0,0,3.65.675c.137,0,.274,0,.411,0a12.657,12.657,0,0,0,3.5-.567,8.081,8.081,0,0,1-.689,2.592,10.358,10.358,0,0,1-2,2.923,14.84,14.84,0,0,1-4.061,2.909l-.656.293-.671-.288a17.255,17.255,0,0,1-4.453-2.975A10,10,0,0,1,316,689.745a6.918,6.918,0,0,1-.7-2.536,12.975,12.975,0,0,0,3.7.576c.118,0,.236,0,.349,0a10.355,10.355,0,0,0,3.763-.727m8.1-.453a9.193,9.193,0,0,1-4.075.874c-.127,0-.25,0-.368,0a7.528,7.528,0,0,1-3.66-.789,7.616,7.616,0,0,1-3.8.836c-.1,0-.208,0-.312,0a12,12,0,0,1-4.221-.817s-.623,5.152,7.447,9.038l1.044.449,1.025-.453c7.314-3.678,6.918-9.146,6.918-9.146Z" transform="translate(-314.764 -686.6)" fill="#f6dd69"/>
            </g>
          </g>
          <g id="Group_3258" data-name="Group 3258" transform="translate(14.926 3.301)">
            <path id="Path_27188" data-name="Path 27188" d="M329.411,613.589h-6.266c-1.544-.8-6.545-1.185-6.545-1.185a24.662,24.662,0,0,0,7.763-1.69l.576.293.718-.907,1.469,1.86,1.469-1.563a6.478,6.478,0,0,0,1.752,2.035l-1.114.552.959.2Z" transform="translate(-316.6 -610.1)" fill="#f6dd69"/>
            <path id="Path_27189" data-name="Path 27189" d="M371.33,627.4l.246.132-2.408,1.6-3.268-.321A26.811,26.811,0,0,0,371.33,627.4Z" transform="translate(-363.572 -626.583)" fill="#fff"/>
            <path id="Path_27190" data-name="Path 27190" d="M366.38,637.2l-2.158,1.417-3.622-.4a36.109,36.109,0,0,1,3.886.774h7.6l-.685-.142-6.724-.085Z" transform="translate(-358.522 -635.92)" fill="#fff"/>
            <path id="Path_27191" data-name="Path 27191" d="M462.885,620.1l1.44,1.785-.458.5-3.268-.066Z" transform="translate(-453.8 -619.628)" fill="#fff"/>
            <path id="Path_27192" data-name="Path 27192" d="M539.5,627.721l1.9.047,1-.449-1.45-1.62-1.266,1.209.2.335Z" transform="translate(-528.975 -624.963)" fill="#fff"/>
          </g>
          <g id="Group_3259" data-name="Group 3259" transform="translate(8.471 12.735)">
            <path id="Path_27193" data-name="Path 27193" d="M183.857,809.9c.08,0,.368.222.529.274a7.878,7.878,0,0,0,2.078.312,12.42,12.42,0,0,0,1.634-.34.555.555,0,0,0,.2.93,6.311,6.311,0,0,0-2.592-.066s.165.118.052.146a2.882,2.882,0,0,1-.751-.132,13.479,13.479,0,0,1-2.323.151,6.554,6.554,0,0,1-2.781-.425,7.182,7.182,0,0,1,2.951-.6A8.143,8.143,0,0,0,183.857,809.9Z" transform="translate(-179.9 -809.9)" fill="#fff"/>
            <path id="Path_27194" data-name="Path 27194" d="M183.8,810.084a.415.415,0,0,1,.047.028,2.149,2.149,0,0,0,.354.184,8.752,8.752,0,0,0,2.153.34,1.305,1.305,0,0,0,.137,0,7.342,7.342,0,0,0,1.133-.2.529.529,0,0,0,.042.406,9.027,9.027,0,0,0-1.034-.061,3.913,3.913,0,0,0-1.114.118l-.189.057a1.71,1.71,0,0,1-.165-.047l-.137-.043-.151.028a13.842,13.842,0,0,1-2.2.142,7.679,7.679,0,0,1-2.3-.283,7.489,7.489,0,0,1,2.488-.449,3.319,3.319,0,0,0,.869-.2.373.373,0,0,0,.071-.014m.057-.184a9.983,9.983,0,0,1-1,.255,7.193,7.193,0,0,0-2.956.6,6.552,6.552,0,0,0,2.781.425,13.479,13.479,0,0,0,2.323-.151,3.7,3.7,0,0,0,.689.137.288.288,0,0,0,.066,0c.113-.028-.052-.146-.052-.146a3.585,3.585,0,0,1,.94-.09,10.109,10.109,0,0,1,1.657.156.555.555,0,0,1-.2-.93,13.259,13.259,0,0,1-1.634.34c-.033,0-.071,0-.109,0a8.339,8.339,0,0,1-1.969-.316c-.17-.057-.458-.279-.538-.279Z" transform="translate(-179.9 -809.9)" fill="#f6dd69"/>
          </g>
          <g id="Group_3261" data-name="Group 3261" transform="translate(28.677 11.517)">
            <path id="Path_27195" data-name="Path 27195" d="M607.8,786.876v-1.015l1.648-.718,6.36-1.044,1.3,1.969-.4-.009.019.859Z" transform="translate(-607.8 -784.1)" fill="#f6dd69"/>
            <path id="Path_27196" data-name="Path 27196" d="M744.03,820.348h-.208v-.737l-.25-.151-.264.146v.741H743.1v-.774l.477-.274.453.279Z" transform="translate(-736.711 -817.638)" fill="#fff"/>
            <path id="Path_27197" data-name="Path 27197" d="M740.31,813.584H740.1l.028-.8-.817-.453-.491.161-.123-.08.652-.212.992.548Z" transform="translate(-732.519 -810.873)" fill="#fff"/>
            <g id="Group_3260" data-name="Group 3260" transform="translate(0.241 0.264)">
              <path id="Path_27198" data-name="Path 27198" d="M612.9,791.268l4.184-.175,2.432-1.195.812-.2-3.013,1.511Z" transform="translate(-612.9 -789.7)" fill="#fff"/>
              <path id="Path_27199" data-name="Path 27199" d="M619.015,790.252l-1.771.888H617.2l1.813-.888m1.313-.553-.812.2-2.432,1.19-4.184.179,4.41-.057,3.017-1.511Z" transform="translate(-612.9 -789.7)" fill="#fff"/>
            </g>
          </g>
          <g id="Group_3262" data-name="Group 3262" transform="translate(7.517 16.065)">
            <path id="Path_27200" data-name="Path 27200" d="M771.088,881.713a3.271,3.271,0,0,1-1.062-.264,1.35,1.35,0,0,1-.68-.453c-.076-.146,0-.283.241-.406a1.582,1.582,0,0,1,.836-.161,3.323,3.323,0,0,1,1.053.26,1.358,1.358,0,0,1,.689.458c.076.146,0,.283-.236.406A1.6,1.6,0,0,1,771.088,881.713Zm.59-.524a1.749,1.749,0,0,0-.562-.312,3.055,3.055,0,0,0-.727-.217.782.782,0,0,0-.482.066c-.128.066-.156.142-.08.231a1.664,1.664,0,0,0,.548.307,3.16,3.16,0,0,0,.737.222.843.843,0,0,0,.486-.061C771.73,881.354,771.754,881.273,771.678,881.188Z" transform="translate(-740.532 -880.425)" fill="#495259"/>
            <path id="Path_27201" data-name="Path 27201" d="M735.029,899.821l.5-.2.293.161-1.4.557-.293-.161.5-.2-1.28-.694-.222.316-.321-.175.3-.434.241-.094Z" transform="translate(-705.738 -898.028)" fill="#495259"/>
            <path id="Path_27202" data-name="Path 27202" d="M676.3,911.124l1.757-.524.222.161.279,1.374-.491.146-.26-1.36-1.266.378Z" transform="translate(-651.906 -909.175)" fill="#495259"/>
            <path id="Path_27203" data-name="Path 27203" d="M640.212,927.4l.595-.128.184.189-1.681.354-.184-.189.595-.128-.817-.831-.4.274-.2-.208.543-.378.288-.061Z" transform="translate(-615.701 -924.134)" fill="#495259"/>
            <path id="Path_27204" data-name="Path 27204" d="M541.1,940.147l1.081-.1a3.181,3.181,0,0,1,1.2.076.9.9,0,0,1,.619.477.414.414,0,0,1-.175.552,2.287,2.287,0,0,1-1.039.288l-1.081.1Zm1.558,1.091c.675-.061.944-.26.8-.586s-.548-.458-1.228-.392l-.515.047.425.982Z" transform="translate(-523.09 -937.211)" fill="#495259"/>
            <path id="Path_27205" data-name="Path 27205" d="M488.413,944.454l-.113-1.421,2-.033.014.2-1.473.024.033.392,1.384-.024.014.2-1.384.024.033.416,1.473-.024.014.2Z" transform="translate(-472.783 -940.045)" fill="#495259"/>
            <path id="Path_27206" data-name="Path 27206" d="M413.573,940.7l1.1.061a2.532,2.532,0,0,1,1.086.25.455.455,0,0,1,.264.543.768.768,0,0,1-.543.5,3.032,3.032,0,0,1-1.18.118l-1.1-.061Zm.741,1.261q1.027.057,1.162-.439t-.892-.552l-.519-.028-.264.992Z" transform="translate(-401.23 -937.854)" fill="#495259"/>
            <path id="Path_27207" data-name="Path 27207" d="M340.047,932.179l.486.071-.93,1.355-.382-.057-.888-1.176-.652.949-.482-.071.93-1.35.382.057.883,1.176Z" transform="translate(-328.818 -929.469)" fill="#495259"/>
            <path id="Path_27208" data-name="Path 27208" d="M275.5,919.3c-.085-.137-.033-.288.161-.458l.845-.746.472.113-.859.76c-.123.109-.161.2-.118.283s.17.151.382.2a1.3,1.3,0,0,0,.567.028.866.866,0,0,0,.439-.208l.859-.76.472.113-.845.746a1.373,1.373,0,0,1-.722.321,2.6,2.6,0,0,1-.973-.066A1.1,1.1,0,0,1,275.5,919.3Z" transform="translate(-269.999 -916.321)" fill="#495259"/>
            <path id="Path_27209" data-name="Path 27209" d="M212,904.214a.3.3,0,0,1-.052-.34.92.92,0,0,1,.378-.354,2.286,2.286,0,0,1,.647-.255,2.639,2.639,0,0,1,.722-.057,2.432,2.432,0,0,1,.713.151,1.154,1.154,0,0,1,.482.288.3.3,0,0,1,.052.34.953.953,0,0,1-.378.354,2.179,2.179,0,0,1-.652.255,2.595,2.595,0,0,1-1.436-.09A1.182,1.182,0,0,1,212,904.214Zm1.44.2a1.791,1.791,0,0,0,.7-.241c.222-.132.335-.255.331-.368s-.113-.212-.331-.293a1.459,1.459,0,0,0-.685-.08,1.666,1.666,0,0,0-.694.236c-.227.132-.335.255-.335.373s.109.212.331.293A1.444,1.444,0,0,0,213.444,904.417Z" transform="translate(-209.454 -902.128)" fill="#495259"/>
            <path id="Path_27210" data-name="Path 27210" d="M159.7,882.363l2.238-.963,1.332.666-.326.142-.963-.486-.614.264.907.453-.326.142-.907-.453-.977.42Z" transform="translate(-159.7 -881.354)" fill="#495259"/>
          </g>
          <g id="Group_3263" data-name="Group 3263" transform="translate(2.455 1.138)">
            <path id="Path_27211" data-name="Path 27211" d="M77.814,830.741l-2.418.444.364.43-.425.076-.935-1.1.425-.076.364.434,2.418-.444Z" transform="translate(-73.366 -817.93)" fill="#495259"/>
            <path id="Path_27212" data-name="Path 27212" d="M64.036,793.75a.926.926,0,0,1-.434.283,3.355,3.355,0,0,1-.784.161,3.919,3.919,0,0,1-.85,0,1.829,1.829,0,0,1-.633-.179.731.731,0,0,1-.34-.335.344.344,0,0,1,.028-.368.87.87,0,0,1,.43-.279,3.144,3.144,0,0,1,.779-.156,4.281,4.281,0,0,1,.855,0,1.829,1.829,0,0,1,.633.179.672.672,0,0,1,.34.335A.313.313,0,0,1,64.036,793.75Zm-.817-.6a2.79,2.79,0,0,0-.869-.028,1.992,1.992,0,0,0-.765.184c-.156.09-.208.2-.151.326a.555.555,0,0,0,.416.274,2.763,2.763,0,0,0,.864.028,2.079,2.079,0,0,0,.774-.184c.161-.09.208-.2.151-.326A.552.552,0,0,0,63.219,793.15Z" transform="translate(-60.556 -782.058)" fill="#495259"/>
            <path id="Path_27213" data-name="Path 27213" d="M52.632,739.646l.019-.246,3.017.552-.014.208-2.219.321,2.167.4-.014.208-3.088.453.019-.26,2.3-.316-2.248-.406.014-.184,2.318-.326Z" transform="translate(-52.5 -731.132)" fill="#495259"/>
            <path id="Path_27214" data-name="Path 27214" d="M63.157,702.231,63.3,702l2.942.383-.113.184-2.507.467,2.059.269-.137.231-2.942-.383.113-.184,2.5-.467Z" transform="translate(-62.123 -695.498)" fill="#495259"/>
            <path id="Path_27215" data-name="Path 27215" d="M116.237,655.7a2.577,2.577,0,0,1-.727.066,3.475,3.475,0,0,1-.8-.132,1.878,1.878,0,0,1-.614-.274.4.4,0,0,1-.2-.331.527.527,0,0,1,.246-.354,1.568,1.568,0,0,1,.567-.26,2.56,2.56,0,0,1,.727-.066,3.7,3.7,0,0,1,.8.132,2.016,2.016,0,0,1,.619.274.393.393,0,0,1,.2.331.5.5,0,0,1-.246.354A1.492,1.492,0,0,1,116.237,655.7Zm.288-.694a1.192,1.192,0,0,0-.586-.3,2.47,2.47,0,0,0-.831-.109,1.111,1.111,0,0,0-.595.189c-.151.113-.184.222-.1.331a1.147,1.147,0,0,0,.586.3,2.5,2.5,0,0,0,.836.113,1.085,1.085,0,0,0,.595-.189C116.577,655.227,116.61,655.118,116.525,655.01Z" transform="translate(-110.996 -650.099)" fill="#495259"/>
            <path id="Path_27216" data-name="Path 27216" d="M156.071,626.139l-2.271-.949,1.332-.689.331.137-.968.5.623.26.907-.472.331.137-.907.472.992.411Z" transform="translate(-149.017 -621.657)" fill="#495259"/>
            <path id="Path_27217" data-name="Path 27217" d="M230.424,596.2l-1.724-1.171,1.686-.534.246.17-1.242.392.477.326,1.166-.368.246.17-1.166.368.505.345,1.242-.392.246.17Z" transform="translate(-220.38 -593.074)" fill="#495259"/>
            <path id="Path_27218" data-name="Path 27218" d="M309.437,583.429l-.576-.246-1.36.288.014.364-.51.109,0-1.558.411-.085,2.526,1.025Zm-1.945-.175,1.025-.217-1.053-.444Z" transform="translate(-294.983 -581.45)" fill="#495259"/>
            <path id="Path_27219" data-name="Path 27219" d="M367.405,571.354a2.9,2.9,0,0,1-.571-.061l.085-.2a3.123,3.123,0,0,0,.51.057,4.152,4.152,0,0,0,.534-.024,1.435,1.435,0,0,0,.449-.109c.094-.047.123-.1.09-.161s-.1-.085-.222-.1a4.268,4.268,0,0,0-.557-.019,4.878,4.878,0,0,1-.888-.047.531.531,0,0,1-.4-.231.192.192,0,0,1,.024-.231.765.765,0,0,1,.321-.2,2.4,2.4,0,0,1,.571-.123,4.548,4.548,0,0,1,.619-.028,2.329,2.329,0,0,1,.524.066l-.08.2a2.942,2.942,0,0,0-.954-.042,1.214,1.214,0,0,0-.425.109q-.135.078-.085.17a.285.285,0,0,0,.217.109,3.418,3.418,0,0,0,.548.019c.26,0,.477,0,.652.019a1.58,1.58,0,0,1,.425.08.414.414,0,0,1,.227.17.186.186,0,0,1-.024.231.732.732,0,0,1-.331.189,2.835,2.835,0,0,1-.6.123A3.932,3.932,0,0,1,367.405,571.354Z" transform="translate(-351.587 -569.612)" fill="#495259"/>
            <path id="Path_27220" data-name="Path 27220" d="M430.751,565.783l-.222-1.2-.992.038-.038-.212,2.545-.1.038.212-1,.038.222,1.2Z" transform="translate(-411.698 -564.3)" fill="#495259"/>
            <path id="Path_27221" data-name="Path 27221" d="M499.265,566.384a1,1,0,0,1-.458-.274.441.441,0,0,1-.1-.392.6.6,0,0,1,.25-.378,1.431,1.431,0,0,1,.548-.231,3.379,3.379,0,0,1,.789-.057,2.985,2.985,0,0,1,.756.118.918.918,0,0,1,.453.274.453.453,0,0,1,.1.392.6.6,0,0,1-.25.378,1.432,1.432,0,0,1-.548.231,2.918,2.918,0,0,1-.784.057A2.784,2.784,0,0,1,499.265,566.384Zm1.473-.194a.5.5,0,0,0,.307-.378.359.359,0,0,0-.161-.392,1.213,1.213,0,0,0-.633-.161,1.527,1.527,0,0,0-.685.1.505.505,0,0,0-.307.378.363.363,0,0,0,.161.4,1.214,1.214,0,0,0,.633.161A1.459,1.459,0,0,0,500.738,566.19Z" transform="translate(-477.624 -565.015)" fill="#495259"/>
            <path id="Path_27222" data-name="Path 27222" d="M576.443,569.769l.5.071-.864,1.36-.4-.057-.973-1.171-.609.954-.5-.066.869-1.36.4.057.968,1.171Z" transform="translate(-548.994 -569.254)" fill="#495259"/>
            <path id="Path_27223" data-name="Path 27223" d="M675.487,590.442l.368.109-1.662,1.19-.411-.123,1.029-.741-1.709.538-.307-.094.335-.94-1.02.732-.411-.123,1.662-1.19.368.109-.416,1.2Z" transform="translate(-642.461 -588.596)" fill="#495259"/>
            <path id="Path_27224" data-name="Path 27224" d="M735.889,623.831l.288-.335L735.119,623l-.722.137-.4-.184,3.131-.557.321.146-1.166,1.464Zm-.34-.9.8.368.524-.614Z" transform="translate(-701.819 -619.656)" fill="#495259"/>
            <path id="Path_27225" data-name="Path 27225" d="M790.521,645.866l-.331-.222.619-.415c.057-.038.085-.076.076-.113s-.047-.076-.113-.123l-.312-.212-1.048.335-.312-.212,2.522-.8.737.5c.194.132.283.255.26.364s-.151.2-.387.274a1.61,1.61,0,0,1-.519.076,1.627,1.627,0,0,1-.505-.094c.071.08.042.161-.09.25Zm.68-.94a.863.863,0,0,0,.359.146.85.85,0,0,0,.373-.033c.127-.043.194-.09.2-.146s-.047-.128-.17-.208l-.392-.264-.765.246Z" transform="translate(-754.318 -640.332)" fill="#495259"/>
            <path id="Path_27226" data-name="Path 27226" d="M836.023,671.984l-2.191-.17-1.1.231-.231-.236,1.1-.231,1.162-.878.26.264-.892.642,1.624.109Z" transform="translate(-795.668 -665.676)" fill="#495259"/>
            <path id="Path_27227" data-name="Path 27227" d="M850.3,706.678l2.942-.378.146.246-2.5.321.382.642-.439.057Z" transform="translate(-812.628 -699.595)" fill="#495259"/>
            <path id="Path_27228" data-name="Path 27228" d="M863.774,737.232l.68-.175-.151-.689-.746-.109L863.5,736l3.178.5.047.208-2.9.784Zm.977-.8.113.519,1.247-.321Z" transform="translate(-825.205 -727.892)" fill="#495259"/>
            <path id="Path_27229" data-name="Path 27229" d="M867.888,774.086l-.047.241-3.041-.132.038-.189,2.285-.675-2.13-.094.047-.236,3.041.132-.038.189-2.286.671Z" transform="translate(-826.443 -763.145)" fill="#495259"/>
            <path id="Path_27230" data-name="Path 27230" d="M855.749,807.306l-.321.5a1.164,1.164,0,0,1-.718.467,3,3,0,0,1-1.195.033,1.847,1.847,0,0,1-.963-.335.4.4,0,0,1-.052-.571l.321-.5Zm-2.81.137c-.2.312.043.519.732.614s1.128-.014,1.332-.326l.156-.241L853.1,807.2Z" transform="translate(-814.635 -795.445)" fill="#495259"/>
          </g>
          <ellipse id="Ellipse_342" data-name="Ellipse 342" cx="0.543" cy="0.25" rx="0.543" ry="0.25" transform="translate(5.926 14.978)" fill="#ffd73b"/>
          <ellipse id="Ellipse_343" data-name="Ellipse 343" cx="0.543" cy="0.25" rx="0.543" ry="0.25" transform="translate(6.649 15.63)" fill="#ffd73b"/>
          <ellipse id="Ellipse_344" data-name="Ellipse 344" cx="0.543" cy="0.25" rx="0.543" ry="0.25" transform="translate(39.858 14.629)" fill="#ffd73b"/>
          <ellipse id="Ellipse_345" data-name="Ellipse 345" cx="0.543" cy="0.25" rx="0.543" ry="0.25" transform="translate(39.136 15.28)" fill="#ffd73b"/>
        </g>
      </g>
    </g>
    <g id="Group_3268" data-name="Group 3268" transform="translate(9.175 0.083)">
      <path id="Path_27231" data-name="Path 27231" d="M205.764,0a10.871,10.871,0,0,0-10.87,10.851,10.786,10.786,0,0,0-.071,2.13l.5,22.689.911-.076,9.43-13.864h.1a10.865,10.865,0,1,0,0-21.731Z" transform="translate(-194.8)" fill="url(#linear-gradient)"/>
      <g id="Group_3267" data-name="Group 3267" transform="translate(1.52 1.421)">
        <path id="Path_27232" data-name="Path 27232" d="M236.444,30.1a9.444,9.444,0,1,0,9.444,9.444A9.444,9.444,0,0,0,236.444,30.1Zm0,17.542a8.093,8.093,0,1,1,8.094-8.093A8.091,8.091,0,0,1,236.444,47.642Z" transform="translate(-227 -30.1)" fill="#fff"/>
        <path id="Path_27233" data-name="Path 27233" d="M236.444,30.1a9.444,9.444,0,1,0,9.444,9.444,9.444,9.444,0,0,0-9.444-9.444Zm0,17.542a8.093,8.093,0,1,1,8.094-8.093,8.091,8.091,0,0,1-8.094,8.093Z" transform="translate(-227 -30.1)" fill="#fff"/>
      </g>
    </g>
    <text id="P" transform="translate(15.159 15)" fill="#fff" font-size="14" font-family="ArialMT, Arial"><tspan x="0" y="0">P</tspan></text>
  </g>
</svg>
