<svg xmlns="http://www.w3.org/2000/svg" width="11.153" height="14.107" viewBox="0 0 11.153 14.107">
  <g id="grey_records_icon" transform="translate(0.05 0.05)" fill="white">
    <path fill="white" id="Path_27175" data-name="Path 27175" d="M9.685,1.751H8.208v-.07A.794.794,0,0,0,7.415.888H6.907A1.481,1.481,0,0,0,5.553,0H5.5A1.481,1.481,0,0,0,4.145.888H3.638a.794.794,0,0,0-.793.793v.07H1.368C.511,1.751,0,2.16,0,2.845V12.64a1.369,1.369,0,0,0,1.368,1.368H9.685a1.369,1.369,0,0,0,1.368-1.368V6.448a.274.274,0,0,0-.547,0V12.64a.822.822,0,0,1-.821.821H1.368a.822.822,0,0,1-.821-.821V2.845c0-.135,0-.547.821-.547H2.845v.383a.274.274,0,0,0,.274.274H7.934a.274.274,0,0,0,.274-.274V2.3H9.685a.822.822,0,0,1,.821.821V6.8l.547.133V3.119A1.369,1.369,0,0,0,9.685,1.751ZM7.66,2.408H3.392V1.681a.246.246,0,0,1,.246-.246h.7a.274.274,0,0,0,.264-.2A.931.931,0,0,1,5.5.547h.053a.932.932,0,0,1,.9.686.273.273,0,0,0,.264.2h.7a.246.246,0,0,1,.245.246Zm0,0" transform="translate(0 0)"  stroke="rgba(82,90,97,0)" stroke-width="0.1"/>
    <path fill="white" id="Path_27179" data-name="Path 27179" d="M76.6,144a.93.93,0,1,0,.93.93A.931.931,0,0,0,76.6,144Zm0,1.417a.487.487,0,1,1,.487-.487A.488.488,0,0,1,76.6,145.417Zm0,0" transform="translate(-73.598 -139.496)"  stroke="rgba(82,90,97,0)" stroke-width="0.1"/>
    <path fill="white" id="Path_27188" data-name="Path 27188" d="M76.6,144a.93.93,0,1,0,.93.93A.931.931,0,0,0,76.6,144Zm0,1.417a.487.487,0,1,1,.487-.487A.488.488,0,0,1,76.6,145.417Zm0,0" transform="translate(-73.598 -136.496)"  stroke="rgba(82,90,97,0)" stroke-width="0.1"/>
    <path fill="white" id="Path_27189" data-name="Path 27189" d="M76.6,144a.93.93,0,1,0,.93.93A.931.931,0,0,0,76.6,144Zm0,1.417a.487.487,0,1,1,.487-.487A.488.488,0,0,1,76.6,145.417Zm0,0" transform="translate(-73.598 -133.496)"  stroke="rgba(82,90,97,0)" stroke-width="0.1"/>
    <path fill="white" id="Path_27183" data-name="Path 27183" d="M197.079,160h-3.137a.274.274,0,0,0,0,.547h3.137a.274.274,0,1,0,0-.547Zm0,0" transform="translate(-188.37 -154.796)"  stroke="rgba(82,90,97,0)" stroke-width="0.1"/>
    <path fill="white" id="Path_27185" data-name="Path 27185" d="M197.079,280h-3.137a.274.274,0,1,0,0,.547h3.137a.274.274,0,1,0,0-.547Zm0,0" transform="translate(-188.37 -271.796)"  stroke="rgba(82,90,97,0)" stroke-width="0.1"/>
    <path fill="white" id="Path_27187" data-name="Path 27187" d="M197.079,400h-3.137a.274.274,0,0,0,0,.547h3.137a.274.274,0,1,0,0-.547Zm0,0" transform="translate(-188.37 -388.796)"  stroke="rgba(82,90,97,0)" stroke-width="0.1"/>
  </g>
</svg>
