<svg xmlns="http://www.w3.org/2000/svg" width="10.665" height="11.486" viewBox="0 0 10.665 11.486">
  <g id="refresh" transform="translate(-17.067)">
    <g id="Group_3143" data-name="Group 3143" transform="translate(17.067)">
      <g id="Group_3142" data-name="Group 3142" transform="translate(0)">
        <path id="Path_27089" data-name="Path 27089" d="M26.5,0a.41.41,0,0,0-.41.41v1.5a5.322,5.322,0,0,0-9.025,3.834.41.41,0,1,0,.82,0A4.512,4.512,0,0,1,25.728,2.7L23.911,3.3a.411.411,0,0,0,.259.779l2.461-.82a.41.41,0,0,0,.281-.391V.41A.41.41,0,0,0,26.5,0Z" transform="translate(-17.067)" fill="#3f3f3f"/>
      </g>
    </g>
    <g id="Group_3145" data-name="Group 3145" transform="translate(17.887 5.333)">
      <g id="Group_3144" data-name="Group 3144" transform="translate(0)">
        <path id="Path_27090" data-name="Path 27090" d="M60.633,221.867a.41.41,0,0,0-.41.41,4.512,4.512,0,0,1-7.841,3.046l1.817-.606a.411.411,0,0,0-.259-.779l-2.461.82a.41.41,0,0,0-.281.391v2.461a.41.41,0,1,0,.82,0v-1.5a5.322,5.322,0,0,0,9.025-3.834A.41.41,0,0,0,60.633,221.867Z" transform="translate(-51.198 -221.867)" fill="#3f3f3f"/>
      </g>
    </g>
  </g>
</svg>
