<svg xmlns="http://www.w3.org/2000/svg" width="16" height="16" viewBox="0 0 16 16">
  <g id="spinner_icon1" transform="translate(-17917 -2926)">
    <rect id="Rectangle_3013" data-name="Rectangle 3013" width="16" height="16" transform="translate(17917 2926)" fill="none" opacity="0"/>
    <g id="refresh" transform="translate(17909.539 2928)">
      <g id="Group_3370" data-name="Group 3370" transform="translate(9.461)">
        <path id="Path_27252" data-name="Path 27252" d="M21.5,5.573a.471.471,0,0,0-.93.148v.008A5.185,5.185,0,1,1,19.281,3.1l-2.086.7a.471.471,0,0,0-.3.6h0a.471.471,0,0,0,.6.3h0l2.826-.942A.471.471,0,0,0,20.64,3.3V.471a.471.471,0,0,0-.942,0v1.72a6.061,6.061,0,1,0,1.8,3.381Z" transform="translate(-9.461)" fill="#fff"/>
      </g>
    </g>
  </g>
</svg>
