<svg id="big_red_delete_icon" xmlns="http://www.w3.org/2000/svg" width="16.844" height="18.5" viewBox="0 0 16.844 18.5">
  <g id="Group_2767" data-name="Group 2767" transform="translate(0 0)">
    <path id="Path_27000" data-name="Path 27000" d="M43.218,2.662h-3.94V2.035A2.062,2.062,0,0,0,37.195,0H33.449a2.062,2.062,0,0,0-2.083,2.035v.628h-3.94a.514.514,0,1,0,0,1.027h.95V15.754A2.783,2.783,0,0,0,31.187,18.5h8.27a2.783,2.783,0,0,0,2.811-2.746V3.689h.95a.514.514,0,1,0,0-1.027Zm-10.8-.628a1.022,1.022,0,0,1,1.032-1.008h3.746a1.022,1.022,0,0,1,1.032,1.008v.628H32.417Zm8.8,13.719a1.743,1.743,0,0,1-1.76,1.719h-8.27a1.743,1.743,0,0,1-1.76-1.719V3.689H41.221V15.754Z" transform="translate(-26.9)" fill="#fb745b"/>
    <path id="Path_27001" data-name="Path 27001" d="M230.226,155.741a.523.523,0,0,0,.526-.526v-9.29a.526.526,0,0,0-1.051,0v9.286A.527.527,0,0,0,230.226,155.741Z" transform="translate(-221.804 -140.027)" fill="#fb745b"/>
    <path id="Path_27002" data-name="Path 27002" d="M142.126,169.385a.523.523,0,0,0,.526-.526v-8.133a.526.526,0,0,0-1.051,0v8.133A.526.526,0,0,0,142.126,169.385Z" transform="translate(-137.134 -154.243)" fill="#fb745b"/>
    <path id="Path_27003" data-name="Path 27003" d="M318.326,169.385a.523.523,0,0,0,.526-.526v-8.133a.526.526,0,1,0-1.051,0v8.133A.523.523,0,0,0,318.326,169.385Z" transform="translate(-306.473 -154.243)" fill="#fb745b"/>
  </g>
</svg>
