<svg xmlns="http://www.w3.org/2000/svg" width="12.186" height="11.294" viewBox="0 0 12.186 11.294">
  <g id="upload" transform="translate(0.001 -17.25)">
    <g id="Group_3146" data-name="Group 3146" transform="translate(0 17.25)">
      <path id="Path_27166" data-name="Path 27166" d="M11.837,228.2a.348.348,0,0,0-.349.349v3.176a1.567,1.567,0,0,1-1.565,1.565H2.263A1.567,1.567,0,0,1,.7,231.727V228.5a.349.349,0,1,0-.7,0v3.228a2.265,2.265,0,0,0,2.263,2.263h7.66a2.265,2.265,0,0,0,2.263-2.263v-3.176A.349.349,0,0,0,11.837,228.2Z" transform="translate(0 -222.696)" fill="#fff"/>
      <path id="Path_27167" data-name="Path 27167" d="M136.919,20.066l1.624-1.624v7.083a.349.349,0,1,0,.7,0V18.442l1.624,1.624a.351.351,0,0,0,.246.1.336.336,0,0,0,.246-.1.348.348,0,0,0,0-.494l-2.219-2.219a.353.353,0,0,0-.246-.1.338.338,0,0,0-.246.1l-2.219,2.219a.348.348,0,1,0,.491.494Z" transform="translate(-132.799 -17.25)" fill="#fff"/>
    </g>
  </g>
</svg>
