<svg xmlns="http://www.w3.org/2000/svg" width="22" height="22" viewBox="0 0 22 22">
  <g id="open_icon" transform="translate(8444 1440)">
    <g id="Group_2741" data-name="Group 2741" transform="translate(-8444 -1440)">
      <g id="Group_2740" data-name="Group 2740">
        <path id="Path_26976" data-name="Path 26976" d="M0,0H22V22H0Z" fill="#fff" opacity="0"/>
      </g>
    </g>
    <g id="share" transform="translate(-8442 -1436.999)">
      <path id="Path_27066" data-name="Path 27066" d="M193.473.611a.382.382,0,0,0-.652.271v2.04A5.221,5.221,0,0,0,189.564,4a5.8,5.8,0,0,0-2.011,3.369,5.934,5.934,0,0,0-.068,1.941v0l0,.017.081.467a.382.382,0,0,0,.7.131l.243-.406a5.37,5.37,0,0,1,2.77-2.45,4.015,4.015,0,0,1,1.534-.225V8.962a.382.382,0,0,0,.653.27l4.04-4.06a.382.382,0,0,0,0-.541Zm.113,7.424V6.505a.382.382,0,0,0-.322-.377,4.677,4.677,0,0,0-2.23.225A5.84,5.84,0,0,0,188.2,8.61a5.447,5.447,0,0,1,.1-1.091,4.973,4.973,0,0,1,1.754-2.933l.024-.021a4.678,4.678,0,0,1,3.12-.886h0a.383.383,0,0,0,.383-.382V1.8L196.7,4.9Zm0,0" transform="translate(-180.27 -0.5)" fill="#384255" stroke="#384255" stroke-width="0.15"/>
      <path id="Path_27067" data-name="Path 27067" d="M15.955,67.994a.382.382,0,0,0-.382.382v1.616a1.148,1.148,0,0,1-1.147,1.147H1.911A1.148,1.148,0,0,1,.765,69.992V60.884a1.148,1.148,0,0,1,1.147-1.147H4.555a.382.382,0,1,0,0-.765H1.911A1.914,1.914,0,0,0,0,60.884v9.108A1.914,1.914,0,0,0,1.911,71.9H14.425a1.914,1.914,0,0,0,1.911-1.911V68.376A.382.382,0,0,0,15.955,67.994Zm0,0" transform="translate(0 -56.737)" fill="#384255" stroke="#384255" stroke-width="0.15"/>
    </g>
  </g>
</svg>
